<?xml version="1.0" encoding="UTF-8"?>
<svg version="1.1" viewBox="0 0 1600 1600" width="100" height="100" xmlns="http://www.w3.org/2000/svg">
<path transform="translate(795,184)" d="m0 0 9 1 16 8 23 12 15 9 17 10 77 44 26 15 15 9 27 15 17 10 26 15 21 12 23 13 26 15 20 11 24 14 16 9 24 14 18 10 17 10 21 12 22 13 23 13 24 15 6 6 1 3v39l-1 99-1 489-3 6-19 10-17 10-28 16-35 21-17 11-6 4-9 2-11-7-13-8-29-16-21-12-24-14-23-13-12-7-1-3-1-18v-453l-5-5-13-8-26-15-27-15-17-10-52-30-35-21-26-15-84-48-26-15-24-14-28-16-26-15-18-12-8-7-1-143 3-10 6-5 22-12 14-8 25-14 53-31z" fill="#F47217"/>
<path transform="translate(379,423)" d="m0 0h9l26 12 26 14 27 16 21 12 12 8 11 8 7 6 6 9 1 6-1 25-3 45-1 340v43l3 6 8 6 25 14 23 13 26 15 24 14 21 12 24 14 23 13 49 28 17 10 36 20 25 14 24 14 56 32 18 11 11 9 4 5 1 8-1 138-5 8-14 8-11 6-24 13-17 10-21 12-23 14-16 9-7 1-19-10-21-12-22-12-48-28-26-15-23-13-25-14-52-30-19-11-23-13-25-14-24-14-56-32-23-13-26-15-27-16-23-13-24-14-23-13-16-10-3-5-1-17-1-75v-69l1-218v-239l1-10 4-5 24-14 22-13 21-12 43-25z" fill="#F47217"/>
<path transform="translate(795,184)" d="m0 0 9 1 16 8 23 12 15 9 17 10 77 44 26 15 15 9 27 15 17 10 26 15 21 12 23 13 26 15 20 11 24 14 16 9 24 14 18 10 17 10 21 12 22 13 23 13 24 15 6 6 1 6-2-1-15 6-17 10-25 15-18 10-13 8-16 9-11 6-9 6-7 3-5-1-8-4-6-5-19-12-26-14-24-14-23-13-19-11-24-14-22-12-14-9-11-6-23-13-22-13-11-6-21-12-16-9-21-12-26-15-49-28-24-13-16-9-44-24-23-13-27-16-18-11-9-5-1-2 5-6 17-9 19-11 27-15 53-31z" fill="#FEC87E"/>
<path transform="translate(1347,503)" d="m0 0 2 2v36l-1 99-1 489-3 6-19 10-17 10-28 16-35 21-17 11-4 1-2-12-1-4v-8l-2-21v-18l-1-32-2-36-1-5 1-4v-20l2-27-1-7v-17l-1-10v-146l-1-9 1-6v-26l1-26 1-46 1-11v-37l1-7v-9l2-19 1-3h-2l2-17v-13l1-6-1-19-1-3 2-6 8-7 16-9 11-6 22-13 18-10 23-14 10-6z" fill="#C85505"/>
<path transform="translate(523,975)" d="m0 0 5 2 24 14 24 13 22 13 26 15 24 14 91 52 19 11 23 13 18 10 25 14 24 14 56 32 18 11 11 9 2 3-8 4-9 4-12 7-10 6-19 10-28 17-10 6-7 4-13 8-17 8h-7l-20-12-13-8-15-9-28-16-25-14-21-12-22-13-24-14-24-13-10-6-25-14-19-11-17-10-23-13-26-15-24-13-16-9-12-7-11-6-20-12-8-5-3-4 1-5 8-5 16-8 21-12 20-11 21-12 22-12 16-8z" fill="#FEC87E"/>
<path transform="translate(520,506)" d="m0 0h3l2 8-1 25-3 45-1 340v43l3 6v3l-16 8-26 14-23 13-14 8-22 12-17 10-15 6-3-1v-3h-2v-17l1-6v-13l2-19 1-22v-92l-1-5v-159l1-39 1-16v-16l1-15 1-3-2-1 1-10v-22l-1-11 15-10 18-10 15-9 24-15 21-12 7-3h14v-2l8-3h3l2-5z" fill="#C85505"/>
<path transform="translate(379,423)" d="m0 0h9l26 12 26 14 27 16 21 12 12 8 11 8 6 5-3 2-4 1v2l-21 13-14 9-11 6-20 12-9 6-7 4-13 8-11 6-9 6-7 3-7-1-16-8-41-23-24-14-16-9-14-10-10-9-8-4 5-5 44-26 21-12 43-25z" fill="#FEC87E"/>
<path transform="translate(923,1224)" d="m0 0 2 2 2-1 10 1v137l-5 8-14 8-11 6-24 13-17 10-21 12-23 14-16 9-7 1-2-1 1-10-1-15 1-15-1-3 1-6v-98l7-7 16-8 15-9 23-14 13-8 16-9 12-6 12-7 5-2h5z" fill="#C85505"/>
<path transform="translate(934,1215)" d="m0 0h2l2 6-1 5-5 1-6-1-4 1-7 1-4 2-3-1 6-5 10-5z" fill="#F47419"/>
<path transform="translate(1347,503)" d="m0 0 2 2v36h-1v-34l-17 6-23 13-4 1 3-3 25-15z" fill="#F58028"/>
<path transform="translate(1332,509)" d="m0 0m-1 1m-2 1h2l-1 3-17 9-7 4-2-1 18-11z" fill="#F47217"/>
</svg>
